<?xml version="1.0" standalone="no"?>
<!DOCTYPE svg PUBLIC "-//W3C//DTD SVG 20010904//EN"
 "http://www.w3.org/TR/2001/REC-SVG-20010904/DTD/svg10.dtd">
<svg version="1.0" xmlns="http://www.w3.org/2000/svg"
 width="960.000000pt" height="960.000000pt" viewBox="0 0 960.000000 960.000000"
 preserveAspectRatio="xMidYMid meet">
<metadata>
Created by potrace 1.14, written by Peter Selinger 2001-2017
</metadata>
<g transform="translate(0.000000,960.000000) scale(0.100000,-0.100000)"
fill="#000000" stroke="none">
<path d="M3149 9175 c-51 -28 -58 -74 -25 -186 9 -31 19 -67 22 -80 6 -29 9
-40 17 -59 3 -8 22 -78 42 -155 21 -77 44 -154 52 -172 15 -32 55 -55 97 -55
49 0 96 55 91 107 -2 20 -45 181 -65 242 -6 18 -13 40 -15 50 -15 67 -68 252
-77 271 -24 47 -89 64 -139 37z"/>
<path d="M2407 8760 c-28 -22 -43 -74 -32 -109 8 -27 371 -452 399 -468 50
-29 118 -3 136 52 19 58 6 86 -82 177 -14 15 -24 28 -20 28 3 0 -3 8 -14 18
-10 10 -37 40 -59 66 -22 27 -49 58 -60 71 -11 12 -39 45 -62 72 -89 106 -98
113 -141 113 -24 0 -49 -8 -65 -20z"/>
<path d="M3610 8338 c-108 -15 -193 -34 -215 -47 -5 -3 -16 -6 -23 -7 -7 -1
-54 -23 -106 -48 -104 -51 -229 -139 -296 -210 -25 -26 -52 -55 -61 -64 -102
-107 -228 -379 -242 -522 -2 -20 -6 -40 -9 -45 -5 -9 -8 -356 -8 -986 l0 -247
-82 0 c-114 1 -140 -6 -164 -45 -18 -30 -19 -54 -21 -357 0 -179 3 -341 8
-361 18 -73 16 -72 449 -73 l385 -1 0 -258 1 -259 -33 -35 c-42 -44 -61 -81
-67 -129 -10 -76 30 -178 80 -204 l21 -12 0 -1556 c0 -856 3 -1573 6 -1592 11
-66 47 -155 77 -194 71 -91 163 -139 265 -138 136 1 195 68 154 173 -9 22 -69
70 -69 54 0 -3 -9 -1 -20 5 -11 6 -20 7 -20 2 0 -14 -56 -5 -88 13 -19 12 -35
34 -48 69 -18 49 -19 104 -20 1601 l-2 1550 27 25 c52 49 71 86 77 152 7 75
-7 114 -64 175 l-39 42 1 258 1 258 265 1 c146 0 267 -3 270 -7 3 -4 5 -241 4
-528 l-1 -520 21 11 c12 6 23 14 26 18 6 10 138 76 168 85 12 3 22 13 23 21 0
8 1 218 2 467 l2 452 391 1 c367 1 393 2 417 20 15 10 30 28 34 39 11 32 10
695 -2 718 -23 46 -56 59 -160 60 l-98 2 -2 615 c-1 338 -4 624 -7 635 -6 23
-20 99 -19 102 2 8 -65 186 -86 228 -73 145 -195 289 -328 386 -44 33 -86 64
-92 69 -7 6 -13 8 -13 4 0 -4 -8 0 -17 8 -43 36 -229 102 -348 123 -58 11
-241 13 -305 3z m250 -197 c3 -1 21 -4 41 -6 52 -4 183 -51 259 -92 95 -51
183 -121 256 -204 68 -77 160 -246 171 -314 3 -16 8 -32 11 -35 4 -3 8 -9 9
-15 0 -5 4 -26 8 -45 10 -45 19 -790 10 -790 -3 0 -16 5 -28 11 -31 17 -119
14 -160 -6 -72 -34 -115 -95 -121 -171 -8 -88 43 -176 123 -211 42 -18 129
-20 159 -4 11 6 23 11 26 11 3 0 6 -55 6 -121 l0 -122 33 -30 c32 -30 35 -31
132 -32 l100 0 0 -220 0 -220 -1157 0 c-766 0 -1158 3 -1159 10 -4 47 -3 425
1 426 3 1 48 2 100 3 102 2 142 17 157 59 4 12 7 74 8 137 1 109 2 115 20 112
11 -2 22 -7 25 -11 11 -16 116 -3 160 19 53 27 83 63 101 122 9 29 14 90 9 93
-4 3 -11 20 -14 39 -7 39 -61 98 -110 121 -40 19 -108 22 -149 6 -16 -6 -31
-11 -35 -11 -4 0 -6 159 -6 352 1 291 4 368 18 436 38 183 130 344 275 479 36
35 71 63 78 63 6 0 13 4 15 8 2 5 32 26 68 46 54 32 149 67 280 105 22 6 267
8 280 2z"/>
<path d="M3715 8008 c-32 -17 -65 -59 -65 -84 0 -61 39 -99 109 -103 36 -2
118 -21 196 -44 20 -6 96 -48 117 -65 76 -61 145 -147 178 -224 38 -84 90
-112 152 -81 61 30 68 95 21 188 -55 109 -121 187 -235 282 -56 46 -201 106
-313 129 -50 10 -142 11 -160 2z"/>
<path d="M3287 7169 c-9 -6 -17 -7 -17 -4 0 3 -23 -6 -51 -21 -105 -53 -179
-160 -187 -269 -4 -58 -2 -63 28 -93 60 -61 150 -28 164 59 17 107 94 163 186
134 53 -16 112 -100 97 -139 -8 -20 28 -72 60 -87 39 -19 68 -13 103 22 28 28
40 75 30 114 -2 6 -4 19 -6 30 -1 11 -3 20 -4 20 -1 0 -3 7 -5 16 -5 27 -55
102 -91 136 -58 56 -129 85 -214 88 -42 2 -84 -1 -93 -6z"/>
<path d="M4060 7159 c0 -5 -7 -6 -15 -3 -35 14 -205 -97 -205 -134 0 -6 -4
-12 -9 -12 -11 0 -38 -66 -47 -112 -12 -68 -7 -99 21 -128 32 -34 63 -41 103
-24 37 15 57 46 67 99 18 103 116 154 205 106 42 -22 66 -61 74 -119 3 -23 13
-53 23 -67 32 -42 97 -47 140 -11 26 22 28 30 28 93 -1 55 -7 80 -30 126 -44
89 -131 162 -217 184 -39 9 -138 11 -138 2z"/>
<path d="M3473 6422 c-26 -4 -73 -48 -74 -71 -7 -91 19 -158 84 -218 53 -49
75 -61 147 -83 129 -38 273 -4 366 87 52 51 73 94 81 164 5 55 4 59 -25 88
-17 17 -39 31 -49 32 -51 3 -511 4 -530 1z"/>
<path d="M1933 8092 c-58 -27 -71 -113 -23 -155 14 -13 59 -38 100 -57 41 -18
104 -47 140 -64 36 -17 67 -31 70 -31 5 -1 71 -31 153 -71 94 -45 153 -40 182
17 35 67 8 116 -89 160 -39 18 -113 52 -164 76 -51 24 -94 43 -96 43 -2 0 -47
20 -100 45 -115 53 -131 57 -173 37z"/>
<path d="M1501 4789 c-18 -4 -45 -20 -60 -35 l-26 -29 -3 -836 -2 -836 23 -34
c31 -47 55 -56 142 -55 41 1 75 -2 75 -6 0 -4 13 -3 30 2 18 5 32 5 36 -1 3
-5 10 -6 17 -2 15 9 168 10 174 0 2 -4 9 -4 15 -1 6 4 45 8 87 9 42 2 78 4 81
5 3 1 12 2 20 1 8 0 49 8 90 19 41 11 82 22 92 24 9 3 42 18 75 34 241 120
395 306 461 557 28 110 34 154 34 270 1 161 -17 260 -68 385 -25 63 -35 80
-83 155 -55 84 -219 244 -235 228 -3 -3 -6 -2 -6 4 0 5 -35 27 -77 47 -43 20
-86 41 -95 47 -10 5 -29 9 -42 9 -14 0 -27 4 -30 9 -3 5 -27 12 -53 16 -27 4
-61 9 -78 12 -48 8 -557 9 -594 2z m222 -213 c3 3 63 5 134 4 70 -1 138 -1
150 -1 76 2 313 -74 313 -100 0 -5 6 -9 14 -9 8 0 43 -26 76 -57 113 -104 181
-229 209 -383 10 -59 12 -268 2 -285 -3 -5 -6 -14 -6 -20 -4 -44 -23 -104 -60
-180 -47 -99 -132 -198 -215 -251 -25 -16 -47 -31 -50 -34 -9 -10 -97 -44
-145 -56 -5 -2 -21 -6 -35 -10 -14 -4 -122 -9 -240 -11 l-215 -5 0 698 c0 688
0 697 20 704 11 4 25 4 31 -1 6 -5 13 -6 17 -3z"/>
<path d="M6570 4784 c-8 -2 -26 -20 -38 -39 -24 -34 -24 -34 -24 -366 l1 -332
-42 40 c-169 161 -389 208 -620 132 -37 -12 -67 -26 -67 -30 0 -5 -6 -9 -14
-9 -8 0 -16 -3 -18 -7 -1 -5 -22 -20 -45 -35 -82 -54 -196 -217 -218 -313 -2
-5 -8 -30 -15 -55 -18 -63 -20 -217 -5 -298 47 -246 236 -448 466 -498 13 -3
35 -8 49 -11 58 -13 256 -6 278 10 6 5 12 7 12 3 0 -3 15 0 33 7 17 8 34 14
37 14 3 0 26 10 51 21 53 24 139 90 186 141 73 80 142 223 159 331 11 70 11
1190 0 1227 -14 49 -39 66 -99 69 -28 2 -59 1 -67 -2z m-375 -750 c22 -4 42
-8 45 -9 25 -2 126 -74 165 -117 133 -148 148 -397 34 -563 -66 -96 -134 -145
-235 -168 -146 -34 -291 4 -390 103 -131 130 -168 347 -90 524 48 108 186 218
290 231 22 3 41 7 43 8 5 6 98 0 138 -9z"/>
<path d="M4458 4255 c-2 -2 -23 -5 -48 -8 -67 -8 -175 -44 -231 -78 -63 -37
-70 -42 -136 -109 -78 -78 -127 -171 -160 -300 -11 -44 -12 -284 -1 -297 6 -7
8 -13 5 -13 -3 0 1 -21 9 -47 8 -27 17 -55 19 -64 2 -10 15 -35 29 -58 14 -22
26 -44 26 -48 0 -19 108 -128 162 -165 115 -78 241 -114 388 -112 154 2 253
29 359 98 130 84 223 211 257 351 70 285 -12 566 -210 715 -62 47 -161 100
-186 100 -11 0 -22 5 -25 10 -4 6 -10 8 -15 5 -4 -2 -21 0 -36 5 -25 9 -199
21 -206 15z m157 -219 c11 -2 21 -5 23 -6 1 -2 5 -3 10 -4 45 -8 141 -71 185
-121 27 -31 75 -135 87 -190 17 -72 14 -177 -5 -248 -11 -39 -58 -137 -67
-137 -4 0 -8 -5 -8 -10 0 -15 -76 -81 -124 -108 -86 -50 -232 -61 -335 -27
-144 48 -255 182 -275 335 -2 19 -5 37 -6 40 -2 6 1 85 4 115 7 60 42 156 71
194 64 84 165 153 245 166 19 3 35 7 37 8 4 4 136 -2 158 -7z"/>
<path d="M7668 4255 c-2 -2 -21 -6 -43 -9 -95 -15 -219 -65 -274 -111 -116
-95 -213 -240 -225 -337 -3 -18 -5 -33 -6 -33 -16 0 -19 -231 -3 -310 18 -90
79 -216 139 -283 46 -52 145 -127 194 -149 14 -6 36 -15 50 -21 116 -50 290
-61 428 -28 79 18 227 90 279 134 20 17 27 42 24 84 -1 9 -17 32 -36 51 -30
29 -41 34 -72 30 -21 -2 -47 -9 -59 -16 -167 -94 -257 -114 -398 -88 -156 29
-302 164 -334 309 -11 46 -11 46 96 40 28 -2 52 0 52 4 0 4 6 5 14 2 21 -8
106 -10 106 -2 0 4 7 5 15 2 22 -9 105 -10 105 -2 0 4 6 5 14 2 23 -9 106 -10
106 -1 0 5 5 5 11 2 14 -10 203 -10 217 -1 7 4 12 3 12 -1 0 -5 15 -8 33 -6
17 2 39 4 47 3 8 0 22 -1 30 -1 52 -2 119 31 122 60 0 9 2 21 3 26 2 6 4 15 5
20 1 6 1 15 0 20 -1 6 -4 35 -6 65 -2 30 -5 62 -7 70 -45 195 -140 329 -291
411 -42 23 -80 39 -83 36 -3 -4 -14 -2 -24 3 -9 6 -33 12 -53 16 -40 6 -184
13 -188 9z m185 -216 c26 -6 47 -16 47 -22 0 -6 3 -7 7 -4 7 8 68 -36 100 -73
36 -40 81 -135 88 -185 l7 -45 -390 0 -390 0 14 47 c24 79 54 131 104 182 42
43 117 89 152 95 7 1 18 4 23 7 6 3 26 6 45 8 19 2 36 4 38 6 6 5 109 -5 155
-16z"/>
<path d="M8996 4253 c-2 -2 -19 -5 -37 -7 -38 -3 -138 -34 -155 -47 -6 -5 -14
-6 -17 -2 -4 3 -7 1 -7 -5 0 -7 -7 -12 -15 -12 -25 0 -131 -114 -145 -156 -7
-21 -15 -43 -18 -48 -4 -8 -6 -113 -2 -126 1 -3 4 -16 6 -30 7 -39 49 -104 94
-144 40 -36 163 -102 204 -109 11 -2 28 -7 36 -10 19 -7 97 -24 190 -42 47 -9
133 -44 171 -71 35 -24 69 -83 69 -120 0 -17 -27 -73 -44 -89 -60 -57 -197
-82 -335 -60 -72 11 -169 55 -212 97 -48 46 -71 57 -115 53 -68 -6 -129 -68
-119 -122 2 -10 4 -24 4 -31 1 -18 77 -88 124 -114 126 -70 250 -101 407 -101
171 0 249 18 349 82 49 32 111 93 111 110 0 5 4 11 9 13 5 2 18 30 29 63 38
110 16 237 -53 313 -30 34 -123 100 -133 94 -2 -2 -8 0 -11 5 -6 8 -89 41
-121 48 -8 2 -15 4 -15 5 0 1 -11 4 -24 6 -14 2 -50 11 -80 19 -31 8 -71 17
-90 20 -19 3 -38 8 -43 11 -4 3 -18 7 -29 9 -63 12 -148 78 -150 117 -5 76 8
107 60 136 48 27 80 34 174 37 114 4 217 -26 270 -79 57 -57 127 -74 186 -44
32 16 42 27 47 54 19 102 -133 221 -346 271 -22 5 -219 11 -224 6z"/>
<path d="M4001 2870 c-1 -33 -1 -67 -1 -75 0 -8 0 -36 0 -62 0 -27 0 -66 0
-88 0 -33 -6 -45 -36 -73 -25 -23 -42 -51 -54 -89 -16 -53 -17 -70 -6 -121 7
-33 55 -112 71 -118 19 -8 34 -55 25 -79 -4 -11 -4 -33 0 -50 8 -34 5 -88 -5
-104 -3 -6 -2 -11 2 -11 5 0 7 -15 5 -32 -2 -18 -3 -42 -3 -53 1 -21 1 -143 0
-160 0 -5 2 -29 3 -53 2 -23 0 -42 -4 -42 -4 0 -3 -13 2 -30 5 -19 5 -30 -1
-30 -6 0 -7 -5 -3 -12 4 -6 6 -41 5 -77 -1 -36 -1 -70 -2 -76 0 -5 2 -29 3
-53 2 -23 0 -42 -4 -42 -4 0 -3 -13 2 -30 5 -19 5 -30 -1 -30 -6 0 -7 -5 -3
-11 9 -15 11 -129 2 -129 -4 0 -5 -6 -2 -14 3 -8 6 -37 8 -65 1 -41 7 -58 30
-81 15 -17 35 -30 44 -31 10 0 28 -2 42 -4 30 -3 68 15 95 45 19 21 20 36 20
391 0 203 4 369 8 369 5 0 5 5 1 12 -4 7 -8 111 -9 233 0 213 0 221 21 241 36
35 73 97 79 133 3 19 8 38 11 42 2 4 0 10 -5 14 -6 3 -8 12 -5 19 8 22 -21 81
-63 128 l-39 43 2 90 c1 94 -6 125 -32 125 -8 0 -25 5 -37 12 -12 7 -28 13
-35 14 -7 1 -35 18 -62 38 -28 20 -54 36 -59 36 -5 0 -9 -27 -10 -60z"/>
<path d="M74 2765 c-17 -7 -41 -26 -53 -43 l-21 -30 0 -829 c0 -813 0 -829 20
-861 34 -56 50 -58 373 -56 224 1 307 5 355 17 34 8 63 15 65 15 9 -4 120 40
175 69 259 134 424 379 459 682 14 119 7 259 -17 366 -7 28 -13 57 -15 65 -2
8 -4 16 -5 18 -2 1 -3 5 -5 10 -14 50 -58 139 -101 204 -41 62 -165 198 -179
198 -3 0 -16 9 -27 20 -39 36 -221 118 -308 138 -104 25 -62 22 -400 27 -218
2 -293 0 -316 -10z m561 -210 c101 -8 235 -59 312 -117 39 -30 163 -161 163
-173 0 -7 7 -18 15 -25 8 -7 15 -21 15 -31 0 -11 3 -19 8 -19 7 0 26 -50 37
-94 2 -10 10 -35 17 -55 6 -20 12 -90 12 -161 0 -140 -6 -194 -34 -265 -6 -16
-11 -32 -11 -35 0 -14 -41 -95 -68 -134 -58 -84 -165 -178 -257 -224 -49 -25
-175 -54 -254 -58 -47 -2 -90 -6 -96 -8 -6 -2 -17 0 -24 4 -7 5 -24 4 -36 0
-13 -5 -26 -5 -28 -1 -3 5 -24 5 -46 1 -22 -4 -40 -4 -40 1 0 4 -13 4 -30 -1
-20 -6 -32 -5 -37 3 -5 7 -8 323 -8 702 -1 543 2 691 12 695 15 6 294 3 378
-5z"/>
<path d="M6356 2769 c-28 -8 -75 -51 -77 -72 -1 -7 -3 -383 -4 -837 -2 -900
-4 -869 55 -903 47 -28 140 -10 160 31 20 40 19 31 20 403 1 378 6 420 56 487
36 47 41 52 89 83 70 45 105 53 220 53 89 -1 104 -4 168 -32 69 -30 127 -89
161 -162 l30 -65 2 -347 c1 -190 4 -362 8 -381 14 -74 100 -108 173 -68 21 12
44 35 51 51 11 24 16 170 11 300 0 8 0 65 1 125 1 94 1 133 1 238 0 12 -11
100 -15 127 -13 73 -54 162 -103 227 -33 43 -90 103 -98 103 -2 0 -25 13 -52
29 -79 49 -166 73 -276 76 -106 3 -217 -19 -281 -54 -63 -36 -79 -46 -97 -61
-52 -44 -48 -64 -49 253 0 160 -3 305 -6 321 -9 53 -85 92 -148 75z"/>
<path d="M8008 2625 c-41 -14 -60 -30 -72 -60 -4 -11 -7 -102 -7 -202 l0 -183
-62 -1 c-84 -1 -97 -4 -124 -32 -48 -47 -35 -132 24 -156 15 -6 57 -12 93 -13
l65 -3 2 -260 c2 -360 4 -402 24 -468 58 -193 223 -312 419 -303 92 5 148 49
145 114 -3 56 -3 57 -28 86 -21 24 -32 27 -104 31 -94 6 -117 13 -157 51 -59
56 -60 68 -64 425 l-2 327 97 0 c54 0 110 1 125 1 15 1 42 14 59 29 36 32 42
85 14 128 -21 32 -47 42 -118 43 -32 0 -62 3 -67 6 -5 3 -11 2 -14 -3 -3 -5
-24 -6 -48 -3 l-43 6 -3 179 c-4 227 -8 240 -102 269 -9 3 -32 -1 -52 -8z"/>
<path d="M2307 2234 c-2 -2 -20 -5 -40 -8 -104 -13 -245 -82 -326 -159 -80
-77 -155 -212 -176 -317 -4 -19 -9 -84 -11 -145 -3 -121 13 -221 47 -292 11
-23 21 -46 21 -50 1 -15 85 -118 129 -158 77 -71 173 -123 269 -145 30 -7 66
-16 80 -19 68 -19 257 2 353 38 12 5 24 9 27 9 3 0 34 15 69 33 84 44 131 88
131 124 0 32 -25 77 -52 94 -33 21 -95 16 -136 -11 -103 -67 -198 -93 -311
-85 -95 7 -113 11 -176 41 -66 33 -137 96 -173 154 -29 47 -68 150 -60 157 2
3 212 5 466 5 l463 1 31 28 c29 26 31 32 33 102 1 41 -1 85 -5 99 -4 14 -13
50 -20 80 -14 62 -58 157 -97 210 -69 93 -193 173 -313 201 -48 11 -215 20
-223 13z m224 -227 c65 -29 110 -65 149 -121 28 -41 70 -150 70 -181 0 -13
-46 -15 -390 -15 -214 0 -390 2 -390 5 0 18 46 135 63 160 62 92 168 160 267
172 19 2 36 5 37 7 2 1 34 1 71 0 46 -2 86 -11 123 -27z"/>
<path d="M5139 2224 c-195 -36 -355 -150 -442 -315 -20 -37 -47 -103 -53 -131
-1 -5 -2 -9 -4 -10 -13 -16 -19 -252 -8 -318 23 -141 97 -282 193 -369 141
-127 366 -179 546 -127 30 9 58 16 63 15 5 0 12 4 15 9 3 5 21 17 40 27 19 9
40 22 48 29 31 26 103 96 101 99 -3 4 34 57 41 57 13 0 -1 -202 -19 -268 -36
-137 -151 -250 -289 -287 -26 -7 -85 -11 -132 -9 -137 5 -233 47 -336 149 -52
52 -88 69 -128 61 -11 -3 -23 -5 -26 -5 -11 -2 -46 -36 -56 -56 -13 -26 -11
-63 7 -95 44 -81 234 -214 335 -234 6 -1 17 -5 25 -9 55 -23 281 -32 350 -13
14 4 35 9 47 12 63 13 180 80 249 141 68 62 134 166 169 268 36 105 37 128 37
490 0 277 -4 390 -12 390 -1 0 -3 13 -5 29 -5 36 -41 125 -74 186 -43 77 -158
183 -244 224 -42 21 -85 39 -97 41 -11 2 -24 6 -28 9 -33 20 -224 26 -313 10z
m239 -208 c149 -34 276 -181 298 -344 9 -66 5 -207 -6 -207 -1 0 -3 -11 -6
-24 -11 -61 -70 -146 -149 -218 -24 -22 -118 -64 -154 -69 -41 -6 -153 -5
-181 1 -14 3 -35 8 -47 11 -35 7 -122 62 -159 99 -77 80 -114 175 -119 305 -3
75 1 109 17 160 35 112 109 204 199 251 41 20 52 24 119 38 37 8 149 6 188 -3z"/>
</g>
</svg>
